<svg width="26" height="35" viewBox="0 0 26 35" fill="none" xmlns="http://www.w3.org/2000/svg">
<path d="M11.356 33.6271C12.1514 34.7751 13.8486 34.7751 14.644 33.6271L23.8156 20.389C24.7346 19.0626 23.7853 17.25 22.1716 17.25H3.82836C2.21472 17.25 1.26542 19.0626 2.18437 20.389L11.356 33.6271Z" fill="#9C5625"/>
<circle cx="13" cy="13" r="11.5" transform="matrix(-1 0 0 1 26 1)" fill="white" stroke="#9C5625" stroke-width="3"/>
<path d="M14.5 9C15.3436 9 16.176 9.17643 16.9326 9.51564C17.6892 9.85484 18.3499 10.3477 18.8634 10.9562C19.377 11.5646 19.7297 12.2723 19.8943 13.0245C20.0589 13.7768 20.0309 14.5533 19.8126 15.2941C19.5942 16.0349 19.1914 16.7201 18.6351 17.2967C18.0789 17.8733 17.3842 18.3259 16.6048 18.6194C15.8253 18.9129 14.9821 19.0395 14.1403 18.9893C13.2985 18.9391 12.4806 18.7136 11.75 18.3301" stroke="#33363F" stroke-width="2" stroke-linecap="round"/>
<path d="M8.57144 20V8" stroke="#33363F" stroke-width="2"/>
<path d="M11.1429 8V11.8571C11.1429 12.5672 10.5672 13.1429 9.85716 13.1429C9.14708 13.1429 8.57144 12.5672 8.57144 11.8571V8" stroke="#33363F" stroke-width="2"/>
<path d="M6.00001 8V11.8571C6.00001 12.5672 6.57565 13.1429 7.28573 13.1429C7.99581 13.1429 8.57144 12.5672 8.57144 11.8571V8" stroke="#33363F" stroke-width="2"/>
</svg>
