<svg width="26" height="35" viewBox="0 0 26 35" fill="none" xmlns="http://www.w3.org/2000/svg">
<path d="M11.356 33.6271C12.1514 34.7751 13.8486 34.7751 14.644 33.6271L23.8156 20.389C24.7346 19.0626 23.7853 17.25 22.1716 17.25H3.82836C2.21472 17.25 1.26542 19.0626 2.18437 20.389L11.356 33.6271Z" fill="#FF8800"/>
<circle cx="13" cy="13" r="11.5" transform="matrix(-1 0 0 1 26 1)" fill="white" stroke="#FF8800" stroke-width="3"/>
<path d="M12 22.0156C10.2072 21.7899 8.59861 20.9685 7.37695 19.75C7.66537 19.2151 8.07812 18.7157 8.60547 18.2832C9.16678 17.8229 9.84398 17.4494 10.6006 17.1924C11.0494 17.04 11.5195 16.9326 12 16.8691V22.0156ZM14 16.8691C14.4805 16.9326 14.9506 17.04 15.3994 17.1924C16.1561 17.4494 16.8331 17.8229 17.3945 18.2832C17.9218 18.7156 18.3336 19.2153 18.6221 19.75C17.4004 20.9682 15.7926 21.79 14 22.0156V16.8691ZM6.08203 9.9541C6.43308 10.4372 6.8546 10.883 7.33789 11.2793C8.62231 12.3324 10.2662 12.9784 12 13.1592V14.8555C11.3014 14.9283 10.6141 15.0757 9.95703 15.2988C8.98849 15.6278 8.09702 16.114 7.33789 16.7363C6.85805 17.1298 6.43537 17.5744 6.08203 18.0605C5.39528 16.8692 5 15.4854 5 14.0078C5 12.5299 5.39501 11.1456 6.08203 9.9541ZM19.917 9.95312C20.6045 11.145 21 12.5294 21 14.0078C21 15.4855 20.6048 16.8691 19.918 18.0605C19.5646 17.5744 19.142 17.1298 18.6621 16.7363C17.9029 16.1139 17.0116 15.6278 16.043 15.2988C15.3858 15.0756 14.6986 14.9283 14 14.8555V13.1592C15.7337 12.9784 17.3777 12.3323 18.6621 11.2793C19.1454 10.883 19.566 10.4363 19.917 9.95312ZM12 11.1465C10.7036 10.9753 9.51372 10.4771 8.60547 9.73242C8.07355 9.29623 7.6643 8.79632 7.37793 8.26465C8.59947 7.04669 10.2077 6.22568 12 6V11.1465ZM14 6C15.7923 6.22559 17.4005 7.04671 18.6221 8.26465C18.3357 8.79626 17.9264 9.29628 17.3945 9.73242C16.4863 10.477 15.2964 10.9753 14 11.1465V6Z" fill="#33363F"/>
</svg>
