<svg width="26" height="35" viewBox="0 0 26 35" fill="none" xmlns="http://www.w3.org/2000/svg">
<path d="M11.356 33.6271C12.1514 34.7751 13.8486 34.7751 14.644 33.6271L23.8156 20.389C24.7346 19.0626 23.7853 17.25 22.1716 17.25H3.82836C2.21472 17.25 1.26542 19.0626 2.18437 20.389L11.356 33.6271Z" fill="#00BBFF"/>
<circle cx="13" cy="13" r="11.5" transform="matrix(-1 0 0 1 26 1)" fill="white" stroke="#00BBFF" stroke-width="3"/>
<path fill-rule="evenodd" clip-rule="evenodd" d="M12.3701 6.2568C12.7269 5.91437 13.2731 5.91443 13.6299 6.2568C15.1697 7.73479 19 11.7942 19 15.5957C18.9999 18.6389 16.3138 21.1064 13 21.1064C9.68632 21.1063 7.00008 18.6389 7 15.5957C7 11.7943 10.8302 7.73491 12.3701 6.2568ZM10.0293 15.0488C9.75657 15.0902 9.56835 15.3453 9.60938 15.6181C9.7194 16.3457 10.0611 17.0193 10.583 17.5381C11.1051 18.0568 11.7814 18.3936 12.5098 18.499C12.7829 18.5382 13.0367 18.3483 13.0762 18.0752C13.1153 17.8021 12.9254 17.5482 12.6523 17.5088C12.1364 17.4341 11.6579 17.1955 11.2881 16.8281C10.9185 16.4607 10.6766 15.984 10.5986 15.4687C10.5572 15.1959 10.3022 15.0076 10.0293 15.0488Z" fill="#33363F"/>
</svg>
