<svg width="26" height="35" viewBox="0 0 26 35" fill="none" xmlns="http://www.w3.org/2000/svg">
<path d="M11.356 33.6271C12.1514 34.7751 13.8486 34.7751 14.644 33.6271L23.8156 20.389C24.7346 19.0626 23.7853 17.25 22.1716 17.25H3.82836C2.21472 17.25 1.26542 19.0626 2.18437 20.389L11.356 33.6271Z" fill="#FF0A0E"/>
<circle cx="13" cy="13" r="11.5" transform="matrix(-1 0 0 1 26 1)" fill="white" stroke="#FF0A0E" stroke-width="3"/>
<path d="M5 11L13 7L21 11L13 15L5 11Z" stroke="#33363F" stroke-width="2" stroke-linecap="round" stroke-linejoin="round"/>
<path d="M21 11V15" stroke="#33363F" stroke-width="2" stroke-linecap="round" stroke-linejoin="round"/>
<path d="M8 13V18C8 18 8.45455 20 13 20C17.5455 20 18 18 18 18V13" stroke="#33363F" stroke-width="2" stroke-linecap="round" stroke-linejoin="round"/>
</svg>
