<svg width="26" height="35" viewBox="0 0 26 35" fill="none" xmlns="http://www.w3.org/2000/svg">
<path d="M11.356 33.6271C12.1514 34.7751 13.8486 34.7751 14.644 33.6271L23.8156 20.389C24.7346 19.0626 23.7853 17.25 22.1716 17.25H3.82836C2.21472 17.25 1.26542 19.0626 2.18437 20.389L11.356 33.6271Z" fill="#00FF09"/>
<circle cx="13" cy="13" r="11.5" transform="matrix(-1 0 0 1 26 1)" fill="white" stroke="#00FF09" stroke-width="3"/>
<path d="M12 21C12 21.5523 12.4477 22 13 22C13.5523 22 14 21.5523 14 21H13H12ZM13 19H12V21H13H14V19H13Z" fill="#222222"/>
<path d="M8.41496 16.3492L13 11L17.585 16.3492C18.141 16.9979 17.6801 18 16.8258 18H9.17422C8.31987 18 7.85896 16.9979 8.41496 16.3492Z" fill="#222222"/>
<path d="M9.64018 10.0318L12.2318 6.92187C12.6316 6.44211 13.3684 6.44211 13.7682 6.92186L16.3598 10.0318C17.0111 10.8134 16.4554 12 15.438 12H10.5621C9.54464 12 8.98886 10.8134 9.64018 10.0318Z" fill="#222222"/>
</svg>
