<svg width="26" height="35" viewBox="0 0 26 35" fill="none" xmlns="http://www.w3.org/2000/svg">
<path d="M11.356 33.6271C12.1514 34.7751 13.8486 34.7751 14.644 33.6271L23.8156 20.389C24.7346 19.0626 23.7853 17.25 22.1716 17.25H3.82836C2.21472 17.25 1.26542 19.0626 2.18437 20.389L11.356 33.6271Z" fill="#D117FF"/>
<circle cx="13" cy="13" r="11.5" transform="matrix(-1 0 0 1 26 1)" fill="white" stroke="#D117FF" stroke-width="3"/>
<path d="M15.3333 7V11.938C15.3333 12.1412 15.3952 12.3395 15.5108 12.5067L18.9155 17.4313C19.374 18.0946 18.8993 19 18.0929 19H7.90708C7.10071 19 6.62595 18.0946 7.08452 17.4313L10.4892 12.5067C10.6048 12.3395 10.6667 12.1412 10.6667 11.938V7" stroke="#33363F" stroke-width="2" stroke-linejoin="round"/>
<path d="M15.5967 16.2606L14.6479 14.5211C14.4727 14.1999 14.1359 14 13.77 14H12.23C11.8641 14 11.5273 14.1999 11.3521 14.5211L10.4033 16.2606C10.2216 16.5938 10.4627 17 10.8423 17H15.1577C15.5373 17 15.7784 16.5938 15.5967 16.2606Z" fill="#33363F"/>
<path d="M9 7H17" stroke="#33363F" stroke-width="2" stroke-linecap="round" stroke-linejoin="round"/>
</svg>
